<svg width="512" height="512" viewBox="0 0 512 512" fill="none" xmlns="http://www.w3.org/2000/svg">
<rect width="512" height="512" rx="50" fill="white"/>
<path d="M130.135 149.696C95.0641 192.393 78.7104 246.204 84.0835 301.214C89.4565 356.225 115.914 405.854 158.583 440.958C168.081 448.771 178.298 455.764 188.946 461.745C189.625 462.124 190.336 462.365 191.052 462.543C191.673 463.018 192.298 463.47 192.924 463.826C199.143 467.319 210.17 468.069 227.357 451.802C238.473 441.287 250.074 425.706 260.036 407.934C273.904 383.188 283.75 355.975 282.016 338.223C281.42 332.118 279.373 327.197 275.729 323.814C273.069 321.215 269.995 319.914 267.681 318.955C266.413 318.431 265.215 317.939 264.59 317.425C244.315 300.745 241.378 270.675 258.042 250.388C274.706 230.1 304.752 227.165 325.022 243.845C325.309 244.082 325.567 244.351 325.844 244.589C326.415 245.993 327.214 247.308 328.295 248.511C330.134 250.553 332.328 251.788 334.7 252.476C335.737 252.882 336.838 253.079 337.946 253.055C346.965 253.843 357.439 248.405 361.707 246.178C374.167 239.671 388.797 229.084 402.916 216.365C411.27 208.838 448.147 174.316 446.109 153.447C445.91 151.408 445.308 149.516 444.298 147.776C443.947 146.835 443.471 145.934 442.767 145.134C440.676 142.767 438.734 140.362 436.799 137.969C432.236 132.33 427.525 126.502 421.159 121.27C333.086 48.8084 202.527 61.555 130.135 149.696ZM201.379 449.309C200.877 448.732 200.502 447.545 200.33 445.785C199.506 437.345 203.35 415.777 220.26 385.608C239.986 350.404 258.973 336.526 264.199 336.27C264.418 336.716 264.652 337.15 264.938 337.54C266.712 344.054 263.849 366.722 245.365 399.701C224.937 436.146 205.277 449.762 201.379 449.309ZM373.774 172.597C316.147 129.164 233.818 138.407 187.588 194.696C141.116 251.274 148.285 334.48 202.786 382.544C199.479 388.788 196.543 395.013 193.999 401.103C161.979 374.529 142.012 337.585 137.748 296.7C133.394 255.237 145.544 214.925 171.857 182.89C198.04 151.014 235.052 131.254 276.088 127.246C316.8 123.269 356.618 135.289 388.347 161.068C383.545 164.577 378.654 168.444 373.774 172.597ZM222.474 351.336C218.633 356.431 214.915 361.92 211.37 367.624C165.962 325.203 160.619 254.05 200.584 205.388C240.393 156.921 310.767 148.265 361.094 184.121C357.429 187.671 352.958 192.202 348.424 197.246C304.488 168.729 249.557 176.728 216.32 217.193C198.733 238.597 190.496 265.089 193.107 291.817C193.114 291.89 193.121 291.963 193.128 292.035C195.428 315.056 205.831 335.841 222.474 351.336ZM245.046 239.691C224.116 265.166 226.07 302.014 248.358 325.23C243.391 328.495 238.308 333.047 233.273 338.433C220.008 325.8 211.726 308.964 209.869 290.361C209.863 290.299 209.858 290.243 209.852 290.182C207.679 267.939 214.585 245.818 229.316 227.89C256.999 194.187 300.873 187.387 337.671 210.32C333.907 215.402 330.573 220.611 328.246 225.626C301.302 209.203 265.638 214.62 245.046 239.691ZM391.658 203.851C368.233 224.957 349.652 234.447 342.092 236.082C344.507 228.73 355.876 211.231 379.307 190.125C402.731 169.019 421.312 159.529 428.872 157.894C426.458 165.246 415.089 182.75 391.658 203.851ZM410.489 134.273C413.767 136.97 416.584 140.016 419.321 143.234C415.06 144.778 411.381 146.688 409.258 147.798C406.947 149.005 404.541 150.396 402.099 151.869C401.588 150.673 400.88 149.547 399.802 148.659C364.478 119.594 319.963 106.037 274.456 110.482C228.949 114.927 187.899 136.841 158.867 172.193C129.92 207.434 116.459 251.81 120.9 297.274C120.938 297.66 120.976 298.051 121.013 298.436C125.85 344.786 148.826 386.573 185.711 416.107C186.432 416.685 187.248 417.017 188.067 417.32C186.921 421.058 185.951 424.683 185.218 428.138C184.373 432.118 183.963 435.541 183.734 438.727C178.751 435.362 173.909 431.769 169.258 427.943C130.062 395.698 105.758 350.104 100.822 299.568C95.8855 249.032 110.909 199.597 143.124 160.376C209.636 79.4194 329.568 67.7108 410.489 134.273Z" fill="black"/>
</svg>
