<svg width="2002" height="678" viewBox="0 0 2002 678" fill="none" xmlns="http://www.w3.org/2000/svg">
<path d="M391.299 136.17C393.321 137.417 395.343 138.664 397.426 139.948C448.397 172.098 490.058 216.118 506.383 276.382C523.154 350.787 500.528 431.248 462.928 495.19C430.708 545.324 382.057 577.524 325.668 590.191C251.676 605.39 171.287 583.322 108.773 541.471C78.05 520.313 46.5706 493.843 27.9754 460.411C27.2833 459.167 26.5913 457.923 25.8782 456.642C10.3541 428.208 1.45401 399.017 0.33409 366.205C0.249123 364.359 0.164156 362.512 0.076614 360.609C-1.82385 282.973 31.7939 197.377 82.9092 140.723C171.832 52.7381 295.663 76.9463 391.299 136.17Z" fill="url(#paint0_linear_90_33)"/>
<path d="M646 500V150H716V294.5L825 150H916.5L781 314L926.5 500H837L716 345.5V500H646ZM1056.36 506.5C1032.69 506.5 1011.02 500.5 991.355 488.5C972.022 476.167 956.522 459.833 944.855 439.5C933.522 418.833 927.855 396 927.855 371C927.855 352.333 931.189 334.833 937.855 318.5C944.522 301.833 953.689 287.333 965.355 275C977.022 262.333 990.522 252.5 1005.86 245.5C1021.52 238.167 1038.36 234.5 1056.36 234.5C1079.02 234.5 1096.69 238.833 1109.36 247.5C1122.02 255.833 1131.86 267 1138.86 281V240H1205.86V500H1140.36V457.5C1133.36 472.167 1123.36 484 1110.36 493C1097.69 502 1079.69 506.5 1056.36 506.5ZM1067.36 445.5C1082.36 445.5 1095.19 442.167 1105.86 435.5C1116.86 428.5 1125.36 419.333 1131.36 408C1137.36 396.667 1140.36 384.333 1140.36 371C1140.36 357.333 1137.36 344.833 1131.36 333.5C1125.36 322.167 1116.86 313 1105.86 306C1095.19 299 1082.36 295.5 1067.36 295.5C1053.02 295.5 1040.36 299 1029.36 306C1018.69 312.667 1010.36 321.667 1004.36 333C998.355 344.333 995.355 356.833 995.355 370.5C995.355 383.5 998.355 395.833 1004.36 407.5C1010.36 418.833 1018.69 428 1029.36 435C1040.36 442 1053.02 445.5 1067.36 445.5ZM1299.46 218.5C1288.13 218.5 1278.46 214.667 1270.46 207C1262.79 199 1258.96 189.5 1258.96 178.5C1258.96 167.833 1262.79 158.667 1270.46 151C1278.46 143 1288.13 139 1299.46 139C1311.13 139 1320.79 143 1328.46 151C1336.13 158.667 1339.96 167.833 1339.96 178.5C1339.96 189.833 1336.13 199.333 1328.46 207C1320.79 214.667 1311.13 218.5 1299.46 218.5ZM1265.96 500V240H1333.46V500H1265.96ZM1474.38 500L1365.88 240H1445.88L1497.88 388.5C1502.55 401.833 1506.22 415.667 1508.88 430C1511.55 415.667 1515.22 401.833 1519.88 388.5L1571.88 240H1650.38L1542.38 500H1474.38ZM1794.81 506.5C1768.15 506.5 1744.31 500.333 1723.31 488C1702.31 475.667 1685.81 459.333 1673.81 439C1662.15 418.333 1656.31 395.5 1656.31 370.5C1656.31 345.5 1662.15 322.667 1673.81 302C1685.81 281.333 1702.31 264.833 1723.31 252.5C1744.31 240.167 1768.15 234 1794.81 234C1821.81 234 1845.65 240.167 1866.31 252.5C1887.31 264.833 1903.65 281.333 1915.31 302C1927.31 322.667 1933.31 345.5 1933.31 370.5C1933.31 395.5 1927.31 418.333 1915.31 439C1903.65 459.333 1887.31 475.667 1866.31 488C1845.65 500.333 1821.81 506.5 1794.81 506.5ZM1794.81 445C1809.15 445 1821.65 441.667 1832.31 435C1842.98 428 1851.15 418.833 1856.81 407.5C1862.81 396.167 1865.81 383.833 1865.81 370.5C1865.81 356.833 1862.81 344.333 1856.81 333C1851.15 321.667 1842.98 312.667 1832.31 306C1821.65 299 1809.15 295.5 1794.81 295.5C1780.48 295.5 1767.98 299 1757.31 306C1746.65 312.667 1738.31 321.667 1732.31 333C1726.65 344.333 1723.81 356.833 1723.81 370.5C1723.81 383.833 1726.65 396.167 1732.31 407.5C1738.31 418.833 1746.65 428 1757.31 435C1767.98 441.667 1780.48 445 1794.81 445Z" fill="white"/>
<defs>
<linearGradient id="paint0_linear_90_33" x1="256" y1="83" x2="256" y2="595" gradientUnits="userSpaceOnUse">
<stop stop-color="#00D78B"/>
<stop offset="0.788462" stop-color="#10B981"/>
</linearGradient>
</defs>
</svg>
