<svg width="2874" height="599" viewBox="0 0 2874 599" fill="none" xmlns="http://www.w3.org/2000/svg">
<rect width="599" height="599" rx="100" fill="url(#paint0_linear_64_23)"/>
<path d="M54.4848 455L114.836 169.453H191.204L164.836 291.328L193.157 251.484L255.657 169.453H345.305L237.688 301.094L290.422 455H204.875L170.891 342.109L151.946 353.047L130.852 455H54.4848ZM282.063 455L342.414 169.453H418.782L392.414 291.328L420.735 251.484L483.235 169.453H572.883L465.266 301.094L518 455H432.454L398.469 342.109L379.524 353.047L358.43 455H282.063Z" fill="#C7FF00"/>
<path d="M710.016 493L785.455 136.066H880.914L847.955 288.41L883.355 238.605L961.48 136.066H1073.54L939.02 300.617L1004.94 493H898.004L855.523 351.887L831.842 365.559L805.475 493H710.016ZM1019.49 493L1094.93 136.066H1190.39L1114.95 493H1019.49ZM1171.25 493L1246.69 136.066H1357.77L1427.59 376.057H1429.79C1430.6 368.895 1431.74 359.781 1433.21 348.713C1434.84 337.645 1436.55 326.415 1438.34 315.021C1440.29 303.628 1442.08 293.781 1443.71 285.48L1475.69 136.066H1560.65L1485.21 493H1374.13L1303.57 242.023H1301.62C1301.45 245.279 1300.97 250.894 1300.15 258.869C1299.34 266.682 1298.28 275.633 1296.98 285.725C1295.68 295.816 1294.21 306.07 1292.58 316.486C1291.12 326.74 1289.49 335.936 1287.7 344.074L1256.21 493H1171.25ZM1541.27 493L1616.71 136.066H1828.62L1812.75 213.459H1696.29L1684.82 269.611H1793.22L1775.64 347.004H1667.24L1653.33 414.387H1769.78L1753.18 493H1541.27ZM1847.08 493L1904.94 214.924H1827.54L1844.39 136.066H2095.37L2078.03 214.924H2000.4L1942.54 493H1847.08ZM2048.39 493L2123.83 136.066H2219.29L2143.85 493H2048.39ZM2200.15 493L2275.59 136.066H2371.05L2338.09 288.41L2373.49 238.605L2451.62 136.066H2563.68L2429.16 300.617L2495.07 493H2388.14L2345.66 351.887L2321.98 365.559L2295.61 493H2200.15ZM2509.62 493L2585.06 136.066H2680.52L2647.56 288.41L2682.96 238.605L2761.09 136.066H2873.15L2738.63 300.617L2804.55 493H2697.61L2655.13 351.887L2631.45 365.559L2605.08 493H2509.62Z" fill="white"/>
<defs>
<linearGradient id="paint0_linear_64_23" x1="86.7517" y1="90.8828" x2="501.921" y2="588.672" gradientUnits="userSpaceOnUse">
<stop offset="0.0901776" stop-color="#2E2E31"/>
<stop offset="0.615385" stop-color="#121214"/>
</linearGradient>
</defs>
</svg>
