<svg width="2304" height="550" viewBox="0 0 2304 550" fill="none" xmlns="http://www.w3.org/2000/svg">
<rect y="1.26646" width="512" height="512" rx="50" fill="#FE644D"/>
<path d="M453.246 260.064C453.246 367.455 366.189 454.512 258.798 454.512C151.407 454.512 64.3497 367.455 64.3497 260.064C64.3497 152.674 151.407 65.6162 258.798 65.6162C366.189 65.6162 453.246 152.674 453.246 260.064ZM103.239 260.064C103.239 345.977 172.885 415.623 258.798 415.623C344.71 415.623 414.356 345.977 414.356 260.064C414.356 174.152 344.71 104.506 258.798 104.506C172.885 104.506 103.239 174.152 103.239 260.064Z" fill="#FAFAFA"/>
<path d="M336.108 260.064C363.717 260.064 386.974 283.273 376.408 308.78C370.011 324.225 360.634 338.258 348.813 350.079C336.992 361.9 322.958 371.277 307.514 377.675C292.069 384.072 275.515 387.365 258.798 387.365C242.08 387.365 225.527 384.072 210.082 377.675C194.637 371.277 180.604 361.9 168.783 350.079C156.962 338.258 147.585 324.225 141.187 308.78C130.622 283.273 153.879 260.064 181.488 260.064L258.798 260.064H336.108Z" fill="#FAFAFA"/>
<path d="M649 445V95H767C806.333 95 837.167 104.333 859.5 123C882.167 141.333 893.5 168.833 893.5 205.5C893.5 242.5 882.167 270.5 859.5 289.5C837.167 308.5 806.333 318 767 318H719V445H649ZM719 255H763C782 255 796.667 251 807 243C817.333 235 822.5 222.667 822.5 206C822.5 189.333 817.333 177.167 807 169.5C796.667 161.5 782 157.5 763 157.5H719V255ZM923.414 445V80H990.914V445H923.414ZM1154.34 451.5C1130.67 451.5 1109 445.5 1089.34 433.5C1070 421.167 1054.5 404.833 1042.84 384.5C1031.5 363.833 1025.84 341 1025.84 316C1025.84 297.333 1029.17 279.833 1035.84 263.5C1042.5 246.833 1051.67 232.333 1063.34 220C1075 207.333 1088.5 197.5 1103.84 190.5C1119.5 183.167 1136.34 179.5 1154.34 179.5C1177 179.5 1194.67 183.833 1207.34 192.5C1220 200.833 1229.84 212 1236.84 226V185H1303.84V445H1238.34V402.5C1231.34 417.167 1221.34 429 1208.34 438C1195.67 447 1177.67 451.5 1154.34 451.5ZM1165.34 390.5C1180.34 390.5 1193.17 387.167 1203.84 380.5C1214.84 373.5 1223.34 364.333 1229.34 353C1235.34 341.667 1238.34 329.333 1238.34 316C1238.34 302.333 1235.34 289.833 1229.34 278.5C1223.34 267.167 1214.84 258 1203.84 251C1193.17 244 1180.34 240.5 1165.34 240.5C1151 240.5 1138.34 244 1127.34 251C1116.67 257.667 1108.34 266.667 1102.34 278C1096.34 289.333 1093.34 301.833 1093.34 315.5C1093.34 328.5 1096.34 340.833 1102.34 352.5C1108.34 363.833 1116.67 373 1127.34 380C1138.34 387 1151 390.5 1165.34 390.5ZM1447.44 445C1421.77 445 1402.11 438.667 1388.44 426C1374.77 413.333 1367.94 392.833 1367.94 364.5V242.5H1331.44V185H1367.94V132.5L1435.44 125.5V185H1490.44V242.5H1435.44V361C1435.44 377 1442.44 385 1456.44 385H1484.44V445H1447.44ZM1635.67 451.5C1609 451.5 1585.5 445.333 1565.17 433C1544.83 420.667 1529 404.333 1517.67 384C1506.67 363.333 1501.17 340.5 1501.17 315.5C1501.17 290.5 1507 267.667 1518.67 247C1530.33 226 1546.17 209.333 1566.17 197C1586.5 184.667 1609.67 178.5 1635.67 178.5C1661.67 178.5 1684.5 184.667 1704.17 197C1724.17 209.333 1739.67 226 1750.67 247C1762 267.667 1767.67 290.5 1767.67 315.5C1767.67 319.167 1767.5 323 1767.17 327C1766.83 331 1766.33 335.167 1765.67 339.5H1571.17C1574.83 354.833 1582.17 367.333 1593.17 377C1604.5 386.667 1618.67 391.5 1635.67 391.5C1650.33 391.5 1663 388.167 1673.67 381.5C1684.67 374.833 1693.17 366.5 1699.17 356.5L1751.67 396C1741.33 412.333 1725.83 425.667 1705.17 436C1684.5 446.333 1661.33 451.5 1635.67 451.5ZM1634.67 236.5C1618.67 236.5 1605 241.333 1593.67 251C1582.33 260.667 1574.83 273.333 1571.17 289H1699.67C1696 274.667 1688.33 262.333 1676.67 252C1665.33 241.667 1651.33 236.5 1634.67 236.5ZM1802.3 445V80H1869.8V445H1802.3ZM1941.22 549.5C1934.56 549.5 1927.06 549.167 1918.72 548.5C1910.39 547.833 1902.89 546.5 1896.22 544.5L1906.22 480C1915.56 482.333 1925.72 483.5 1936.72 483.5C1949.72 483.5 1960.39 479.667 1968.72 472C1977.06 464.667 1983.06 455.333 1986.72 444L1990.22 433L1887.22 185H1968.72L2019.22 333.5C2023.89 346.833 2027.56 360.667 2030.22 375C2032.89 360.667 2036.56 346.833 2041.22 333.5L2091.72 185H2171.72L2056.72 461.5C2045.72 487.833 2031.39 509 2013.72 525C1996.06 541.333 1971.89 549.5 1941.22 549.5Z" fill="white"/>
</svg>
