<svg width="1024" height="1024" viewBox="0 0 1024 1024" fill="none" xmlns="http://www.w3.org/2000/svg">
<path d="M0 8C0 3.58172 3.58172 0 8 0H1016C1020.42 0 1024 3.58172 1024 8V1016C1024 1020.42 1020.42 1024 1016 1024H8C3.58172 1024 0 1020.42 0 1016V8Z" fill="#242124"/>
<circle cx="513.383" cy="513.347" r="300" stroke="white" stroke-width="100"/>
<path d="M739.017 318.594C700.453 273.501 649.511 240.702 592.633 224.347C535.755 207.992 475.497 208.814 419.477 226.709C363.458 244.605 314.193 278.771 277.914 324.885C241.635 371 219.97 426.993 215.659 485.784C211.348 544.574 219.772 604.197 248.883 655.847C277.994 707.497 326.483 748.855 379.204 775.956C431.924 803.056 491.319 814.007 549.879 807.424C608.438 800.84 663.532 777.018 708.193 738.969" stroke="url(#paint0_linear_35_2)" stroke-width="100" stroke-linecap="round"/>
<defs>
<linearGradient id="paint0_linear_35_2" x1="486.938" y1="659.973" x2="501.868" y2="416.147" gradientUnits="userSpaceOnUse">
<stop stop-color="white"/>
<stop offset="1" stop-color="#FFC300"/>
</linearGradient>
</defs>
</svg>
