<svg width="3386" height="523" viewBox="0 0 3386 523" fill="none" xmlns="http://www.w3.org/2000/svg">
<rect width="523" height="523" rx="75" fill="#242124"/>
<circle cx="262.196" cy="262.179" r="151.263" stroke="white" stroke-width="50"/>
<path d="M375.828 164.099C356.406 141.39 330.751 124.872 302.107 116.636C273.463 108.399 243.116 108.813 214.905 117.825C186.693 126.838 161.883 144.044 143.612 167.268C125.342 190.491 114.431 218.69 112.26 248.297C110.089 277.905 114.331 307.931 128.992 333.943C143.652 359.954 168.072 380.782 194.622 394.431C221.173 408.079 251.085 413.594 280.576 410.278C310.067 406.963 337.813 394.966 360.305 375.804" stroke="url(#paint0_linear_64_33)" stroke-width="50" stroke-linecap="round"/>
<path d="M623.769 408V80.7273H758.961C783.464 80.7273 804.611 85.5213 822.402 95.1094C840.3 104.591 854.096 117.854 863.79 134.9C873.485 151.839 878.332 171.548 878.332 194.026C878.332 216.611 873.379 236.374 863.471 253.312C853.67 270.145 839.661 283.195 821.443 292.464C803.226 301.732 781.599 306.366 756.564 306.366H673.148V244.044H741.862C753.794 244.044 763.755 241.967 771.745 237.812C779.842 233.657 785.967 227.851 790.122 220.393C794.277 212.83 796.354 204.04 796.354 194.026C796.354 183.906 794.277 175.17 790.122 167.819C785.967 160.362 779.842 154.609 771.745 150.56C763.648 146.512 753.688 144.488 741.862 144.488H702.871V408H623.769ZM917.324 408V162.545H993.229V207.29H995.786C1000.26 191.097 1007.56 179.058 1017.68 171.175C1027.8 163.185 1039.57 159.19 1053 159.19C1056.62 159.19 1060.35 159.456 1064.18 159.989C1068.02 160.415 1071.59 161.107 1074.89 162.066V229.982C1071.16 228.703 1066.26 227.691 1060.19 226.945C1054.22 226.2 1048.89 225.827 1044.21 225.827C1034.94 225.827 1026.57 227.904 1019.12 232.059C1011.77 236.107 1005.96 241.807 1001.7 249.158C997.544 256.402 995.467 264.925 995.467 274.726V408H917.324ZM1208.56 412.634C1182.78 412.634 1160.62 407.361 1142.08 396.814C1123.65 386.161 1109.43 371.352 1099.42 352.389C1089.51 333.32 1084.56 311.214 1084.56 286.072C1084.56 260.823 1089.51 238.717 1099.42 219.754C1109.43 200.685 1123.65 185.876 1142.08 175.33C1160.62 164.676 1182.78 159.349 1208.56 159.349C1234.34 159.349 1256.45 164.676 1274.88 175.33C1293.42 185.876 1307.64 200.685 1317.55 219.754C1327.56 238.717 1332.57 260.823 1332.57 286.072C1332.57 311.214 1327.56 333.32 1317.55 352.389C1307.64 371.352 1293.42 386.161 1274.88 396.814C1256.45 407.361 1234.34 412.634 1208.56 412.634ZM1209.04 353.668C1218.42 353.668 1226.35 350.791 1232.85 345.038C1239.35 339.286 1244.3 331.295 1247.71 321.068C1251.23 310.841 1252.99 299.016 1252.99 285.592C1252.99 271.956 1251.23 260.024 1247.71 249.797C1244.3 239.57 1239.35 231.58 1232.85 225.827C1226.35 220.074 1218.42 217.197 1209.04 217.197C1199.35 217.197 1191.14 220.074 1184.43 225.827C1177.83 231.58 1172.77 239.57 1169.25 249.797C1165.84 260.024 1164.14 271.956 1164.14 285.592C1164.14 299.016 1165.84 310.841 1169.25 321.068C1172.77 331.295 1177.83 339.286 1184.43 345.038C1191.14 350.791 1199.35 353.668 1209.04 353.668ZM1511.14 162.545V220.074H1356.3V162.545H1511.14ZM1388.74 103.739H1466.88V330.816C1466.88 335.61 1467.63 339.499 1469.12 342.482C1470.72 345.358 1473.01 347.435 1475.99 348.714C1478.97 349.886 1482.54 350.472 1486.7 350.472C1489.68 350.472 1492.82 350.205 1496.12 349.673C1499.53 349.033 1502.09 348.501 1503.79 348.075L1515.62 404.484C1511.89 405.55 1506.62 406.881 1499.8 408.479C1493.09 410.077 1485.04 411.089 1475.67 411.516C1457.35 412.368 1441.63 410.237 1428.53 405.124C1415.53 399.903 1405.57 391.807 1398.64 380.834C1391.83 369.861 1388.52 356.065 1388.74 339.445V103.739ZM1663.12 412.634C1637.44 412.634 1615.28 407.574 1596.64 397.453C1578.1 387.226 1563.83 372.684 1553.81 353.827C1543.9 334.864 1538.95 312.332 1538.95 286.232C1538.95 260.876 1543.96 238.717 1553.97 219.754C1563.99 200.685 1578.1 185.876 1596.32 175.33C1614.54 164.676 1636 159.349 1660.72 159.349C1678.19 159.349 1694.17 162.066 1708.66 167.499C1723.15 172.933 1735.67 180.976 1746.21 191.629C1756.76 202.283 1764.96 215.44 1770.82 231.1C1776.68 246.654 1779.61 264.499 1779.61 284.634V304.129H1566.28V258.746H1706.9C1706.79 250.436 1704.82 243.032 1700.99 236.533C1697.15 230.035 1691.88 224.974 1685.17 221.352C1678.56 217.624 1670.95 215.759 1662.32 215.759C1653.58 215.759 1645.75 217.73 1638.83 221.672C1631.9 225.507 1626.41 230.781 1622.37 237.492C1618.32 244.097 1616.19 251.608 1615.97 260.024V306.207C1615.97 316.221 1617.95 325.01 1621.89 332.574C1625.83 340.031 1631.42 345.837 1638.67 349.992C1645.91 354.147 1654.54 356.224 1664.55 356.224C1671.48 356.224 1677.76 355.266 1683.41 353.348C1689.06 351.43 1693.9 348.607 1697.95 344.879C1702 341.15 1705.04 336.569 1707.06 331.136L1778.81 333.213C1775.83 349.3 1769.28 363.309 1759.16 375.241C1749.14 387.066 1735.99 396.281 1719.69 402.886C1703.39 409.385 1684.53 412.634 1663.12 412.634ZM1819.52 408V162.545H1897.66V408H1819.52ZM1858.67 133.941C1847.7 133.941 1838.27 130.319 1830.39 123.075C1822.5 115.724 1818.56 106.881 1818.56 96.5476C1818.56 86.3203 1822.5 77.5845 1830.39 70.3402C1838.27 62.9893 1847.7 59.3139 1858.67 59.3139C1869.75 59.3139 1879.18 62.9893 1886.96 70.3402C1894.84 77.5845 1898.78 86.3203 1898.78 96.5476C1898.78 106.881 1894.84 115.724 1886.96 123.075C1879.18 130.319 1869.75 133.941 1858.67 133.941ZM2025.54 268.014V408H1947.4V162.545H2021.71V207.609H2024.43C2029.86 192.588 2039.13 180.816 2052.23 172.293C2065.34 163.664 2080.94 159.349 2099.05 159.349C2116.31 159.349 2131.28 163.238 2143.96 171.015C2156.74 178.685 2166.65 189.445 2173.68 203.295C2180.82 217.038 2184.33 233.124 2184.23 251.555V408H2106.08V266.896C2106.19 253.259 2102.73 242.606 2095.7 234.935C2088.77 227.265 2079.13 223.43 2066.77 223.43C2058.57 223.43 2051.33 225.241 2045.04 228.863C2038.86 232.379 2034.07 237.439 2030.66 244.044C2027.36 250.649 2025.65 258.639 2025.54 268.014Z" fill="white"/>
<path d="M2232.61 408V80.7273H2311.71V343.76H2447.86V408H2232.61ZM2603.39 412.634C2577.6 412.634 2555.45 407.361 2536.91 396.814C2518.48 386.161 2504.26 371.352 2494.24 352.389C2484.33 333.32 2479.38 311.214 2479.38 286.072C2479.38 260.823 2484.33 238.717 2494.24 219.754C2504.26 200.685 2518.48 185.876 2536.91 175.33C2555.45 164.676 2577.6 159.349 2603.39 159.349C2629.17 159.349 2651.27 164.676 2669.7 175.33C2688.24 185.876 2702.46 200.685 2712.37 219.754C2722.38 238.717 2727.39 260.823 2727.39 286.072C2727.39 311.214 2722.38 333.32 2712.37 352.389C2702.46 371.352 2688.24 386.161 2669.7 396.814C2651.27 407.361 2629.17 412.634 2603.39 412.634ZM2603.87 353.668C2613.24 353.668 2621.18 350.791 2627.68 345.038C2634.17 339.286 2639.13 331.295 2642.54 321.068C2646.05 310.841 2647.81 299.016 2647.81 285.592C2647.81 271.956 2646.05 260.024 2642.54 249.797C2639.13 239.57 2634.17 231.58 2627.68 225.827C2621.18 220.074 2613.24 217.197 2603.87 217.197C2594.17 217.197 2585.97 220.074 2579.26 225.827C2572.65 231.58 2567.59 239.57 2564.07 249.797C2560.67 260.024 2558.96 271.956 2558.96 285.592C2558.96 299.016 2560.67 310.841 2564.07 321.068C2567.59 331.295 2572.65 339.286 2579.26 345.038C2585.97 350.791 2594.17 353.668 2603.87 353.668ZM2882 412.634C2856.22 412.634 2834.06 407.361 2815.52 396.814C2797.09 386.161 2782.87 371.352 2772.85 352.389C2762.95 333.32 2757.99 311.214 2757.99 286.072C2757.99 260.823 2762.95 238.717 2772.85 219.754C2782.87 200.685 2797.09 185.876 2815.52 175.33C2834.06 164.676 2856.22 159.349 2882 159.349C2907.78 159.349 2929.89 164.676 2948.32 175.33C2966.85 185.876 2981.08 200.685 2990.98 219.754C3001 238.717 3006 260.823 3006 286.072C3006 311.214 3001 333.32 2990.98 352.389C2981.08 371.352 2966.85 386.161 2948.32 396.814C2929.89 407.361 2907.78 412.634 2882 412.634ZM2882.48 353.668C2891.85 353.668 2899.79 350.791 2906.29 345.038C2912.79 339.286 2917.74 331.295 2921.15 321.068C2924.67 310.841 2926.42 299.016 2926.42 285.592C2926.42 271.956 2924.67 260.024 2921.15 249.797C2917.74 239.57 2912.79 231.58 2906.29 225.827C2899.79 220.074 2891.85 217.197 2882.48 217.197C2872.78 217.197 2864.58 220.074 2857.87 225.827C2851.26 231.58 2846.2 239.57 2842.69 249.797C2839.28 260.024 2837.57 271.956 2837.57 285.592C2837.57 299.016 2839.28 310.841 2842.69 321.068C2846.2 331.295 2851.26 339.286 2857.87 345.038C2864.58 350.791 2872.78 353.668 2882.48 353.668ZM3046.03 500.045V162.545H3123.38V204.573H3125.78C3128.97 197.116 3133.5 189.925 3139.36 183C3145.32 176.075 3152.89 170.429 3162.05 166.061C3171.32 161.587 3182.4 159.349 3195.29 159.349C3212.33 159.349 3228.26 163.824 3243.07 172.773C3257.98 181.722 3270.02 195.518 3279.18 214.161C3288.35 232.805 3292.93 256.562 3292.93 285.433C3292.93 313.238 3288.51 336.516 3279.66 355.266C3270.93 374.016 3259.1 388.078 3244.19 397.453C3229.38 406.828 3212.92 411.516 3194.81 411.516C3182.45 411.516 3171.75 409.491 3162.69 405.443C3153.63 401.395 3146.02 396.068 3139.84 389.463C3133.77 382.858 3129.08 375.773 3125.78 368.21H3124.18V500.045H3046.03ZM3122.58 285.273C3122.58 298.483 3124.34 309.989 3127.85 319.79C3131.48 329.591 3136.64 337.208 3143.35 342.641C3150.17 347.968 3158.32 350.631 3167.8 350.631C3177.39 350.631 3185.54 347.968 3192.25 342.641C3198.96 337.208 3204.02 329.591 3207.43 319.79C3210.95 309.989 3212.71 298.483 3212.71 285.273C3212.71 272.062 3210.95 260.61 3207.43 250.915C3204.02 241.221 3198.96 233.71 3192.25 228.384C3185.65 223.057 3177.5 220.393 3167.8 220.393C3158.22 220.393 3150.07 223.004 3143.35 228.224C3136.64 233.444 3131.48 240.901 3127.85 250.596C3124.34 260.29 3122.58 271.849 3122.58 285.273Z" fill="#FFC301"/>
<defs>
<linearGradient id="paint0_linear_64_33" x1="248.878" y1="336.02" x2="256.397" y2="213.228" gradientUnits="userSpaceOnUse">
<stop stop-color="white"/>
<stop offset="1" stop-color="#FFC300"/>
</linearGradient>
</defs>
</svg>
