<svg width="3471" height="518" viewBox="0 0 3471 518" fill="none" xmlns="http://www.w3.org/2000/svg">
<path d="M642 432V82H755C794.333 82 825.167 91.1666 847.5 109.5C870.167 127.5 881.5 153.667 881.5 188C881.5 215.667 874 238 859 255C844.333 272 823.833 283.333 797.5 289L895.5 432H813L738.5 321C733.833 314 729.333 305.5 725 295.5H712V432H642ZM712 232.5H751C770 232.5 784.667 228.833 795 221.5C805.333 213.833 810.5 202.833 810.5 188.5C810.5 174.5 805.333 163.833 795 156.5C784.667 148.833 770 145 751 145H712V232.5ZM1018.2 438.5C994.529 438.5 972.862 432.5 953.195 420.5C933.862 408.167 918.362 391.833 906.695 371.5C895.362 350.833 889.695 328 889.695 303C889.695 284.333 893.029 266.833 899.695 250.5C906.362 233.833 915.529 219.333 927.195 207C938.862 194.333 952.362 184.5 967.695 177.5C983.362 170.167 1000.2 166.5 1018.2 166.5C1040.86 166.5 1058.53 170.833 1071.2 179.5C1083.86 187.833 1093.7 199 1100.7 213V172H1167.7V432H1102.2V389.5C1095.2 404.167 1085.2 416 1072.2 425C1059.53 434 1041.53 438.5 1018.2 438.5ZM1029.2 377.5C1044.2 377.5 1057.03 374.167 1067.7 367.5C1078.7 360.5 1087.2 351.333 1093.2 340C1099.2 328.667 1102.2 316.333 1102.2 303C1102.2 289.333 1099.2 276.833 1093.2 265.5C1087.2 254.167 1078.7 245 1067.7 238C1057.03 231 1044.2 227.5 1029.2 227.5C1014.86 227.5 1002.2 231 991.195 238C980.529 244.667 972.195 253.667 966.195 265C960.195 276.333 957.195 288.833 957.195 302.5C957.195 315.5 960.195 327.833 966.195 339.5C972.195 350.833 980.529 360 991.195 367C1002.2 374 1014.86 377.5 1029.2 377.5ZM1207.8 432V172H1274.3V210C1287.97 180.667 1314.47 166 1353.8 166C1372.47 166 1389.3 170.333 1404.3 179C1419.3 187.667 1431.13 200 1439.8 216C1448.47 232 1452.8 251 1452.8 273V432H1385.3V289.5C1385.3 266.833 1380.13 250.5 1369.8 240.5C1359.47 230.167 1345.97 225 1329.3 225C1314.97 225 1302.3 230.167 1291.3 240.5C1280.63 250.5 1275.3 266.833 1275.3 289.5V432H1207.8ZM1490.52 432V67H1558.02V277L1655.52 172H1751.52L1629.02 293L1752.02 432H1662.52L1558.02 308.5V432H1490.52Z" fill="#D65147"/>
<path d="M1774.32 432V82H1844.32V369H1974.82V432H1774.32ZM2110.48 438.5C2086.81 438.5 2065.15 432.5 2045.48 420.5C2026.15 408.167 2010.65 391.833 1998.98 371.5C1987.65 350.833 1981.98 328 1981.98 303C1981.98 284.333 1985.31 266.833 1991.98 250.5C1998.65 233.833 2007.81 219.333 2019.48 207C2031.15 194.333 2044.65 184.5 2059.98 177.5C2075.65 170.167 2092.48 166.5 2110.48 166.5C2133.15 166.5 2150.81 170.833 2163.48 179.5C2176.15 187.833 2185.98 199 2192.98 213V172H2259.98V432H2194.48V389.5C2187.48 404.167 2177.48 416 2164.48 425C2151.81 434 2133.81 438.5 2110.48 438.5ZM2121.48 377.5C2136.48 377.5 2149.31 374.167 2159.98 367.5C2170.98 360.5 2179.48 351.333 2185.48 340C2191.48 328.667 2194.48 316.333 2194.48 303C2194.48 289.333 2191.48 276.833 2185.48 265.5C2179.48 254.167 2170.98 245 2159.98 238C2149.31 231 2136.48 227.5 2121.48 227.5C2107.15 227.5 2094.48 231 2083.48 238C2072.81 244.667 2064.48 253.667 2058.48 265C2052.48 276.333 2049.48 288.833 2049.48 302.5C2049.48 315.5 2052.48 327.833 2058.48 339.5C2064.48 350.833 2072.81 360 2083.48 367C2094.48 374 2107.15 377.5 2121.48 377.5ZM2418.59 438.5C2394.92 438.5 2373.25 432.5 2353.59 420.5C2334.25 408.167 2318.75 391.833 2307.09 371.5C2295.75 350.833 2290.09 328 2290.09 303C2290.09 284.333 2293.42 266.833 2300.09 250.5C2306.75 233.833 2315.92 219.333 2327.59 207C2339.25 194.333 2352.75 184.5 2368.09 177.5C2383.75 170.167 2400.59 166.5 2418.59 166.5C2440.92 166.5 2458.42 170.667 2471.09 179C2483.75 187.333 2493.59 198.333 2500.59 212V67H2568.09V432H2502.59V389.5C2495.59 404.167 2485.59 416 2472.59 425C2459.92 434 2441.92 438.5 2418.59 438.5ZM2429.59 377.5C2444.59 377.5 2457.42 374.167 2468.09 367.5C2479.09 360.5 2487.59 351.333 2493.59 340C2499.59 328.667 2502.59 316.333 2502.59 303C2502.59 289.333 2499.59 276.833 2493.59 265.5C2487.59 254.167 2479.09 245 2468.09 238C2457.42 231 2444.59 227.5 2429.59 227.5C2415.25 227.5 2402.59 231 2391.59 238C2380.92 244.667 2372.59 253.667 2366.59 265C2360.59 276.333 2357.59 288.833 2357.59 302.5C2357.59 315.5 2360.59 327.833 2366.59 339.5C2372.59 350.833 2380.92 360 2391.59 367C2402.59 374 2415.25 377.5 2429.59 377.5ZM2726.69 438.5C2703.02 438.5 2681.36 432.5 2661.69 420.5C2642.36 408.167 2626.86 391.833 2615.19 371.5C2603.86 350.833 2598.19 328 2598.19 303C2598.19 284.333 2601.52 266.833 2608.19 250.5C2614.86 233.833 2624.02 219.333 2635.69 207C2647.36 194.333 2660.86 184.5 2676.19 177.5C2691.86 170.167 2708.69 166.5 2726.69 166.5C2749.02 166.5 2766.52 170.667 2779.19 179C2791.86 187.333 2801.69 198.333 2808.69 212V67H2876.19V432H2810.69V389.5C2803.69 404.167 2793.69 416 2780.69 425C2768.02 434 2750.02 438.5 2726.69 438.5ZM2737.69 377.5C2752.69 377.5 2765.52 374.167 2776.19 367.5C2787.19 360.5 2795.69 351.333 2801.69 340C2807.69 328.667 2810.69 316.333 2810.69 303C2810.69 289.333 2807.69 276.833 2801.69 265.5C2795.69 254.167 2787.19 245 2776.19 238C2765.52 231 2752.69 227.5 2737.69 227.5C2723.36 227.5 2710.69 231 2699.69 238C2689.02 244.667 2680.69 253.667 2674.69 265C2668.69 276.333 2665.69 288.833 2665.69 302.5C2665.69 315.5 2668.69 327.833 2674.69 339.5C2680.69 350.833 2689.02 360 2699.69 367C2710.69 374 2723.36 377.5 2737.69 377.5ZM3040.8 438.5C3014.13 438.5 2990.63 432.333 2970.3 420C2949.96 407.667 2934.13 391.333 2922.8 371C2911.8 350.333 2906.3 327.5 2906.3 302.5C2906.3 277.5 2912.13 254.667 2923.8 234C2935.46 213 2951.3 196.333 2971.3 184C2991.63 171.667 3014.8 165.5 3040.8 165.5C3066.8 165.5 3089.63 171.667 3109.3 184C3129.3 196.333 3144.8 213 3155.8 234C3167.13 254.667 3172.8 277.5 3172.8 302.5C3172.8 306.167 3172.63 310 3172.3 314C3171.96 318 3171.46 322.167 3170.8 326.5H2976.3C2979.96 341.833 2987.3 354.333 2998.3 364C3009.63 373.667 3023.8 378.5 3040.8 378.5C3055.46 378.5 3068.13 375.167 3078.8 368.5C3089.8 361.833 3098.3 353.5 3104.3 343.5L3156.8 383C3146.46 399.333 3130.96 412.667 3110.3 423C3089.63 433.333 3066.46 438.5 3040.8 438.5ZM3039.8 223.5C3023.8 223.5 3010.13 228.333 2998.8 238C2987.46 247.667 2979.96 260.333 2976.3 276H3104.8C3101.13 261.667 3093.46 249.333 3081.8 239C3070.46 228.667 3056.46 223.5 3039.8 223.5ZM3202.43 432V172H3267.93V221.5C3272.26 202.833 3281.1 188.667 3294.43 179C3307.76 169 3325.76 164.667 3348.43 166V229.5H3338.93C3319.6 229.5 3303.26 235.667 3289.93 248C3276.6 260.333 3269.93 277.333 3269.93 299V432H3202.43Z" fill="#D65147"/>
<path d="M50 0.5H462C489.334 0.5 511.5 22.8759 511.5 50.4883V466.512C511.5 494.124 489.334 516.5 462 516.5H50C22.6665 516.5 0.5 494.124 0.5 466.512V50.4883C0.5 22.8759 22.6665 0.5 50 0.5Z" fill="#D65147" stroke="#F9F9F9"/>
<path d="M402.439 510.567L403.102 515.966L403.171 516.527H402.605L374.347 516.51H373.891L373.849 516.057L373.565 513.017L373.519 512.515L374.021 512.473L401.901 510.13L402.381 510.09L402.439 510.567Z" fill="#F9F9F9" stroke="#F9F9F9"/>
<path d="M109.505 511.081L108.844 515.943L108.767 516.51H109.34L137.805 516.501L138.278 516.5L138.304 516.028L138.398 514.236L138.424 513.764L137.954 513.712L110.055 510.651L109.57 510.598L109.505 511.081Z" fill="#F9F9F9" stroke="#F9F9F9"/>
<path d="M388 512L349.39 98.0266Z" fill="#F9F9F9"/>
<path d="M364.325 96.6337C363.556 88.3852 356.245 82.3221 347.997 83.0914C339.749 83.8608 333.685 91.1711 334.455 99.4196L349.39 98.0266L364.325 96.6337ZM388 512L402.935 510.607L364.325 96.6337L349.39 98.0266L334.455 99.4196L373.065 513.393L388 512Z" fill="#F9F9F9"/>
<path d="M152.344 247.357H358.344Z" fill="#F9F9F9"/>
<path d="M152.344 247.357H358.344" stroke="#F9F9F9" stroke-width="30" stroke-linejoin="round"/>
<path d="M143.344 431.793H367.344Z" fill="#F9F9F9"/>
<path d="M143.344 431.793H367.344" stroke="#F9F9F9" stroke-width="30" stroke-linejoin="round"/>
<path d="M143.344 339.575H367.344Z" fill="#F9F9F9"/>
<path d="M143.344 339.575H367.344" stroke="#F9F9F9" stroke-width="30" stroke-linejoin="round"/>
<path d="M160.344 161.025H349.344Z" fill="#F9F9F9"/>
<path d="M349.344 176.025H364.344V146.025H349.344V161.025V176.025ZM160.344 161.025V176.025H349.344V161.025V146.025H160.344V161.025Z" fill="#F9F9F9"/>
<path d="M160.688 98L124 512Z" fill="#F9F9F9"/>
<path d="M175.629 99.3241C176.361 91.0722 170.264 83.7898 162.012 83.0586C153.76 82.3273 146.478 88.424 145.747 96.6759L160.688 98L175.629 99.3241ZM160.688 98L145.747 96.6759L109.059 510.676L124 512L138.941 513.324L175.629 99.3241L160.688 98Z" fill="#F9F9F9"/>
</svg>
