<svg width="2639" height="780" viewBox="0 0 2639 780" fill="none" xmlns="http://www.w3.org/2000/svg">
<rect y="96" width="588" height="588" rx="125" fill="#0F2D40"/>
<path d="M140.251 194.53L205.365 426.992C205.748 428.239 205.748 429.581 205.365 430.828L155.572 592.996H167.254C169.864 592.996 172.233 591.509 173.383 589.16L240.414 449.628C241.42 447.374 243.598 445.911 246.064 445.792L390.27 437.448C393.574 437.28 396.518 439.558 397.164 442.818L427.519 587.629C428.189 590.746 430.942 592.975 434.126 592.999H440.254C442.169 593.023 444.012 592.208 445.281 590.77C446.574 589.331 447.172 587.437 446.957 585.519L425.22 395.923C424.765 392.35 421.629 389.737 418.039 389.977L249.221 401.964C246.324 402.108 243.643 400.43 242.518 397.745L157.775 190.22C156.77 187.655 154.304 185.976 151.551 186H146.38C144.346 186.096 142.454 187.127 141.257 188.781C140.06 190.46 139.701 192.564 140.251 194.53Z" fill="#F9F9F9" stroke="#F9F9F9" stroke-width="12"/>
<path d="M819 600V255.6H699V180H1023V255.6H903V600H819ZM1049.82 600L952.622 288H1047.42L1087.62 465C1089.22 472.6 1090.82 480.6 1092.42 489C1094.42 497 1096.02 504.8 1097.22 512.4C1099.62 496.4 1103.02 480.4 1107.42 464.4L1153.02 288H1246.02L1294.62 464.4C1299.02 480.4 1302.42 496.4 1304.82 512.4C1306.02 504.8 1307.42 497 1309.02 489C1311.02 480.6 1312.82 472.6 1314.42 465L1357.62 288H1445.82L1348.62 600H1261.02L1210.02 422.4C1205.22 406.8 1201.62 391.2 1199.22 375.6C1198.02 383.2 1196.62 391 1195.02 399C1193.42 407 1191.62 414.8 1189.62 422.4L1142.82 600H1049.82ZM1590.68 607.8C1558.68 607.8 1530.08 600.4 1504.88 585.6C1479.68 570.8 1459.88 551.2 1445.48 526.8C1431.48 502 1424.48 474.6 1424.48 444.6C1424.48 414.6 1431.48 387.2 1445.48 362.4C1459.88 337.6 1479.68 317.8 1504.88 303C1530.08 288.2 1558.68 280.8 1590.68 280.8C1623.08 280.8 1651.68 288.2 1676.48 303C1701.68 317.8 1721.28 337.6 1735.28 362.4C1749.68 387.2 1756.88 414.6 1756.88 444.6C1756.88 474.6 1749.68 502 1735.28 526.8C1721.28 551.2 1701.68 570.8 1676.48 585.6C1651.68 600.4 1623.08 607.8 1590.68 607.8ZM1590.68 534C1607.88 534 1622.88 530 1635.68 522C1648.48 513.6 1658.28 502.6 1665.08 489C1672.28 475.4 1675.88 460.6 1675.88 444.6C1675.88 428.2 1672.28 413.2 1665.08 399.6C1658.28 386 1648.48 375.2 1635.68 367.2C1622.88 358.8 1607.88 354.6 1590.68 354.6C1573.48 354.6 1558.48 358.8 1545.68 367.2C1532.88 375.2 1522.88 386 1515.68 399.6C1508.88 413.2 1505.48 428.2 1505.48 444.6C1505.48 460.6 1508.88 475.4 1515.68 489C1522.88 502.6 1532.88 513.6 1545.68 522C1558.48 530 1573.48 534 1590.68 534ZM1804.88 600V255.6H1684.88V180H2008.88V255.6H1888.88V600H1804.88ZM2102.23 607.8C2070.23 607.8 2041.63 600.4 2016.43 585.6C1991.23 570.8 1971.43 551.2 1957.03 526.8C1943.03 502 1936.03 474.6 1936.03 444.6C1936.03 414.6 1943.03 387.2 1957.03 362.4C1971.43 337.6 1991.23 317.8 2016.43 303C2041.63 288.2 2070.23 280.8 2102.23 280.8C2134.63 280.8 2163.23 288.2 2188.03 303C2213.23 317.8 2232.83 337.6 2246.83 362.4C2261.23 387.2 2268.43 414.6 2268.43 444.6C2268.43 474.6 2261.23 502 2246.83 526.8C2232.83 551.2 2213.23 570.8 2188.03 585.6C2163.23 600.4 2134.63 607.8 2102.23 607.8ZM2102.23 534C2119.43 534 2134.43 530 2147.23 522C2160.03 513.6 2169.83 502.6 2176.63 489C2183.83 475.4 2187.43 460.6 2187.43 444.6C2187.43 428.2 2183.83 413.2 2176.63 399.6C2169.83 386 2160.03 375.2 2147.23 367.2C2134.43 358.8 2119.43 354.6 2102.23 354.6C2085.03 354.6 2070.03 358.8 2057.23 367.2C2044.43 375.2 2034.43 386 2027.23 399.6C2020.43 413.2 2017.03 428.2 2017.03 444.6C2017.03 460.6 2020.43 475.4 2027.23 489C2034.43 502.6 2044.43 513.6 2057.23 522C2070.03 530 2085.03 534 2102.23 534ZM2292.28 720V288H2372.08V338.4C2380.48 321.2 2392.28 307.4 2407.48 297C2423.08 286.6 2444.48 281.4 2471.68 281.4C2493.28 281.4 2513.28 285.8 2531.68 294.6C2550.48 303 2566.88 314.8 2580.88 330C2594.88 344.8 2605.88 362.2 2613.88 382.2C2621.88 401.8 2625.88 422.8 2625.88 445.2C2625.88 475.2 2618.88 502.6 2604.88 527.4C2591.28 551.8 2572.88 571.4 2549.68 586.2C2526.48 600.6 2500.48 607.8 2471.68 607.8C2444.88 607.8 2423.88 603 2408.68 593.4C2393.48 583.4 2381.68 570.2 2373.28 553.8V720H2292.28ZM2458.48 534.6C2475.68 534.6 2490.68 530.4 2503.48 522C2516.68 513.6 2526.88 502.6 2534.08 489C2541.28 475 2544.88 460.2 2544.88 444.6C2544.88 428.2 2541.28 413.2 2534.08 399.6C2526.88 386 2516.68 375.2 2503.48 367.2C2490.68 358.8 2475.68 354.6 2458.48 354.6C2440.88 354.6 2425.48 358.8 2412.28 367.2C2399.08 375.6 2388.88 386.6 2381.68 400.2C2374.48 413.8 2370.88 428.8 2370.88 445.2C2370.88 461.2 2374.48 476 2381.68 489.6C2388.88 503.2 2399.08 514.2 2412.28 522.6C2425.48 530.6 2440.88 534.6 2458.48 534.6Z" fill="#F9F9F9"/>
</svg>
