<svg width="138" height="40" viewBox="0 0 138 40" fill="none" xmlns="http://www.w3.org/2000/svg">
<path d="M48.6 31V8.6H53.08V17.848L60.056 8.6H65.912L57.24 19.096L66.552 31H60.824L53.08 21.112V31H48.6ZM73.5828 31.416C72.0681 31.416 70.6814 31.032 69.4227 30.264C68.1854 29.4747 67.1934 28.4293 66.4468 27.128C65.7214 25.8053 65.3588 24.344 65.3588 22.744C65.3588 21.5493 65.5721 20.4293 65.9988 19.384C66.4254 18.3173 67.0121 17.3893 67.7588 16.6C68.5054 15.7893 69.3694 15.16 70.3508 14.712C71.3534 14.2427 72.4308 14.008 73.5828 14.008C75.0334 14.008 76.1641 14.2853 76.9748 14.84C77.7854 15.3733 78.4148 16.088 78.8628 16.984V14.36H83.1508V31H78.9588V28.28C78.5108 29.2187 77.8708 29.976 77.0388 30.552C76.2281 31.128 75.0761 31.416 73.5828 31.416ZM74.2868 27.512C75.2468 27.512 76.0681 27.2987 76.7508 26.872C77.4548 26.424 77.9988 25.8373 78.3828 25.112C78.7668 24.3867 78.9588 23.5973 78.9588 22.744C78.9588 21.8693 78.7668 21.0693 78.3828 20.344C77.9988 19.6187 77.4548 19.032 76.7508 18.584C76.0681 18.136 75.2468 17.912 74.2868 17.912C73.3694 17.912 72.5588 18.136 71.8548 18.584C71.1721 19.0107 70.6388 19.5867 70.2548 20.312C69.8708 21.0373 69.6788 21.8373 69.6788 22.712C69.6788 23.544 69.8708 24.3333 70.2548 25.08C70.6388 25.8053 71.1721 26.392 71.8548 26.84C72.5588 27.288 73.3694 27.512 74.2868 27.512ZM87.8615 12.984C87.1362 12.984 86.5175 12.7387 86.0055 12.248C85.5148 11.736 85.2695 11.128 85.2695 10.424C85.2695 9.74133 85.5148 9.15467 86.0055 8.664C86.5175 8.152 87.1362 7.896 87.8615 7.896C88.6082 7.896 89.2268 8.152 89.7175 8.664C90.2082 9.15467 90.4535 9.74133 90.4535 10.424C90.4535 11.1493 90.2082 11.7573 89.7175 12.248C89.2268 12.7387 88.6082 12.984 87.8615 12.984ZM85.7175 31V14.36H90.0375V31H85.7175ZM97.7765 31L90.8325 14.36H95.9525L99.2805 23.864C99.5792 24.7173 99.8138 25.6027 99.9845 26.52C100.155 25.6027 100.39 24.7173 100.689 23.864L104.017 14.36H109.041L102.129 31H97.7765ZM117.004 31.416C115.297 31.416 113.772 31.0213 112.428 30.232C111.084 29.4427 110.028 28.3973 109.26 27.096C108.513 25.7733 108.14 24.312 108.14 22.712C108.14 21.112 108.513 19.6507 109.26 18.328C110.028 17.0053 111.084 15.9493 112.428 15.16C113.772 14.3707 115.297 13.976 117.004 13.976C118.732 13.976 120.257 14.3707 121.58 15.16C122.924 15.9493 123.969 17.0053 124.716 18.328C125.484 19.6507 125.868 21.112 125.868 22.712C125.868 24.312 125.484 25.7733 124.716 27.096C123.969 28.3973 122.924 29.4427 121.58 30.232C120.257 31.0213 118.732 31.416 117.004 31.416ZM117.004 27.48C117.921 27.48 118.721 27.2667 119.404 26.84C120.087 26.392 120.609 25.8053 120.972 25.08C121.356 24.3547 121.548 23.5653 121.548 22.712C121.548 21.8373 121.356 21.0373 120.972 20.312C120.609 19.5867 120.087 19.0107 119.404 18.584C118.721 18.136 117.921 17.912 117.004 17.912C116.087 17.912 115.287 18.136 114.604 18.584C113.921 19.0107 113.388 19.5867 113.004 20.312C112.641 21.0373 112.46 21.8373 112.46 22.712C112.46 23.5653 112.641 24.3547 113.004 25.08C113.388 25.8053 113.921 26.392 114.604 26.84C115.287 27.2667 116.087 27.48 117.004 27.48Z" fill="#032842"/>
<path d="M31.3345 4.31145C31.4964 4.4079 31.6583 4.50434 31.8252 4.6037C35.9068 7.0904 39.2429 10.4953 40.5502 15.1566C41.8932 20.9117 40.0813 27.1352 37.0704 32.081C34.4903 35.9588 30.5944 38.4494 26.0789 39.4291C20.1537 40.6048 13.7164 38.8979 8.71035 35.6607C6.2501 34.0242 3.72928 31.9768 2.24022 29.3909C2.1848 29.2947 2.12938 29.1985 2.07228 29.0994C0.829135 26.9001 0.116435 24.6422 0.0267533 22.1043C0.0199493 21.9614 0.0131453 21.8186 0.00613511 21.6714C-0.14605 15.6664 2.546 9.04569 6.63921 4.6636C13.76 -2.14185 23.6761 -0.269389 31.3345 4.31145Z" fill="url(#paint0_linear_356_547)"/>
<defs>
<linearGradient id="paint0_linear_356_547" x1="17" y1="1" x2="31.5" y2="38.5" gradientUnits="userSpaceOnUse">
<stop offset="0.237264" stop-color="#00D78B"/>
<stop offset="0.848084" stop-color="#10B981"/>
</linearGradient>
</defs>
</svg>
